# xmcd
#
# Track frame offsets:
#	150
#	12887
#	29802
#	55739
#	66835
#	81070
#	97693
#	117481
#	134126
#	152108
#	173431
#
# Disc length: 2585 seconds
# Revision: 0
# Processed by: cddbd v1.5.2PL0 Copyright (c) Steve Scherf et al.
# Submitted via: dBpowerAMP V12.0
#
DISCID=8b0a170b
DTITLE=Mark Robinson - Have Axe - Will Groove
DYEAR=2013
DGENRE=Blues
TTITLE0=Drive Real Fast
TTITLE1=Baby's Gone To Memphis
TTITLE2=Angel of Mercy
TTITLE3=Cool Rockin' Daddy
TTITLE4=Broke Down
TTITLE5=Pull My Coat
TTITLE6=Lifetime Prescription
TTITLE7=Rhythm Doctor
TTITLE8=What's the Matter Baby
TTITLE9=Lonely Avenue
TTITLE10=Blue Moon Howl
EXTD=
EXTT0=
EXTT1=
EXTT2=
EXTT3=
EXTT4=
EXTT5=
EXTT6=
EXTT7=
EXTT8=
EXTT9=
EXTT10=
PLAYORDER=
